<svg width="51" height="51" viewBox="0 0 51 51" xmlns="http://www.w3.org/2000/svg">
  <path d="M25.5 0C39.5833 0 51 11.4167 51 25.5C51 39.5833 39.5833 51 25.5 51C11.4167 51 0 39.5833 0 25.5C0 11.4167 11.4167 0 25.5 0ZM25.3418 13.2637C19.4457 13.2637 16.7501 17.0034 16.75 21.9561H20.4561C20.4561 18.7555 21.6017 16.3976 25.2402 16.3975C28.4073 16.3975 29.1826 18.4526 29.1826 20.373C29.1825 23.4724 27.1947 24.4498 23.2529 26.8418C18.8056 29.6045 16.1436 32.6367 16.1436 37.0166H32.6865V33.8838H20.8271V33.8164C21.501 31.7612 23.6572 30.4805 25.9482 29.1328C29.2837 27.0776 32.9559 24.7528 32.9561 20.2383C32.9561 15.791 29.5533 13.2638 25.3418 13.2637Z" />
</svg>
