<svg viewBox="0 0 24 24" xmlns="http://www.w3.org/2000/svg">
<path fill-rule="evenodd" clip-rule="evenodd" d="M12 4C7.58172 4 4 7.58172 4 12C4 16.4183 7.58172 20 12 20C16.4183 20 20 16.4183 20 12C20 7.58172 16.4183 4 12 4ZM2 12C2 6.47715 6.47715 2 12 2C17.5228 2 22 6.47715 22 12C22 17.5228 17.5228 22 12 22C6.47715 22 2 17.5228 2 12Z"/>
<path fill-rule="evenodd" clip-rule="evenodd" d="M12 4C7.58172 4 4 7.58172 4 12C4 16.4183 7.58172 20 12 20C16.4183 20 20 16.4183 20 12C20 7.58172 16.4183 4 12 4ZM2 12C2 6.47715 6.47715 2 12 2C17.5228 2 22 6.47715 22 12C22 17.5228 17.5228 22 12 22C6.47715 22 2 17.5228 2 12Z"/>
<path d="M15.2806 17H8.40665C8.40665 15.18 9.51265 13.92 11.3606 12.772C12.9986 11.778 13.8246 11.372 13.8246 10.084C13.8246 9.28601 13.5026 8.432 12.1866 8.432C10.6746 8.432 10.1986 9.412 10.1986 10.742H8.65865C8.65865 8.68401 9.77865 7.13 12.2286 7.13C13.9786 7.13 15.3926 8.18 15.3926 10.028C15.3926 11.904 13.8666 12.87 12.4806 13.724C11.5286 14.284 10.6326 14.816 10.3526 15.67V15.698H15.2806V17Z"/>
</svg>
