<svg viewBox="0 0 51 51" xmlns="http://www.w3.org/2000/svg">
  <path d="M25.5 0C39.5833 0 51 11.4167 51 25.5C51 39.5833 39.5833 51 25.5 51C11.4167 51 0 39.5833 0 25.5C0 11.4167 11.4167 0 25.5 0ZM26.0156 13.2637C20.2879 13.2637 17.3564 16.4305 17.3564 20.7432H21.0625C21.0625 18.4858 22.0396 16.3965 25.9814 16.3965C28.8451 16.3965 29.9569 18.0138 29.957 19.833C29.957 22.3599 28.3062 23.4043 25.9814 23.4043H23.9268V26.4033H26.1162C28.4746 26.4033 30.7655 27.1783 30.7656 30.3789C30.7656 32.8721 29.5192 34.3545 25.8467 34.3545C21.7702 34.3544 20.422 32.266 20.4219 29.0654H16.7158C16.716 34.3886 20.0859 37.4883 26.083 37.4883C31.2041 37.4882 34.5391 34.961 34.5391 30.4463C34.539 27.7173 33.2925 25.6958 30.2266 24.7188V24.6514C32.4502 23.708 33.7304 22.1582 33.7305 19.665C33.7305 15.5547 30.1597 13.2638 26.0156 13.2637Z" />
</svg>
