<svg width="24" height="24" viewBox="0 0 24 24" xmlns="http://www.w3.org/2000/svg">
<path fill-rule="evenodd" clip-rule="evenodd" d="M12 4C7.58172 4 4 7.58172 4 12C4 16.4183 7.58172 20 12 20C16.4183 20 20 16.4183 20 12C20 7.58172 16.4183 4 12 4ZM2 12C2 6.47715 6.47715 2 12 2C17.5228 2 22 6.47715 22 12C22 17.5228 17.5228 22 12 22C6.47715 22 2 17.5228 2 12Z"/>
<path fill-rule="evenodd" clip-rule="evenodd" d="M12 4C7.58172 4 4 7.58172 4 12C4 16.4183 7.58172 20 12 20C16.4183 20 20 16.4183 20 12C20 7.58172 16.4183 4 12 4ZM2 12C2 6.47715 6.47715 2 12 2C17.5228 2 22 6.47715 22 12C22 17.5228 17.5228 22 12 22C6.47715 22 2 17.5228 2 12Z"/>
<path d="M12.1291 17.196C9.63706 17.196 8.23706 15.908 8.23706 13.696H9.77706C9.77706 15.026 10.3371 15.894 12.0311 15.894C13.5571 15.894 14.0751 15.278 14.0751 14.242C14.0751 12.912 13.1231 12.59 12.1431 12.59H11.2331V11.344H12.0871C13.0531 11.344 13.7391 10.91 13.7391 9.86C13.7391 9.10401 13.2771 8.432 12.0871 8.432C10.4491 8.432 10.0431 9.30001 10.0431 10.238H8.50306C8.50306 8.44601 9.72106 7.13 12.1011 7.13C13.8231 7.13 15.3071 8.08201 15.3071 9.79C15.3071 10.826 14.7751 11.47 13.8511 11.862V11.89C15.1251 12.296 15.6431 13.136 15.6431 14.27C15.6431 16.146 14.2571 17.196 12.1291 17.196Z"/>
</svg>
