<svg width="24" height="24" viewBox="0 0 24 24" fill="none" xmlns="http://www.w3.org/2000/svg">
<path d="M15.4998 11.0857L13.207 13.3786L13.207 6.79282L11.207 6.79282L11.207 13.3786L8.91406 11.0857L7.49985 12.4999L12.207 17.207L16.9141 12.4999L15.4998 11.0857Z" fill="white"/>
<path fill-rule="evenodd" clip-rule="evenodd" d="M12 22C17.5229 22 22 17.5229 22 12C22 6.4772 17.5229 2 12 2C6.4772 2 2 6.4772 2 12C2 17.5228 6.4772 22 12 22ZM20 12C20 16.4183 16.4183 20 12 20C7.5817 20 4 16.4183 4 12C4 7.5817 7.5817 4 12 4C16.4183 4 20 7.5817 20 12Z" fill="white"/>
</svg>
