<svg viewBox="0 0 24 24" xmlns="http://www.w3.org/2000/svg">
<path d="M11.2928 8.70708L13.5857 10.9999L6.99988 10.9999L6.99988 12.9999L13.5857 12.9999L11.2928 15.2928L12.707 16.707L17.4141 11.9999L12.707 7.29278L11.2928 8.70708Z"/>
<path fill-rule="evenodd" clip-rule="evenodd" d="M12 22C17.5229 22 22 17.5229 22 12C22 6.4772 17.5229 2 12 2C6.4772 2 2 6.4772 2 12C2 17.5228 6.4772 22 12 22ZM20 12C20 16.4183 16.4183 20 12 20C7.5817 20 4 16.4183 4 12C4 7.5817 7.5817 4 12 4C16.4183 4 20 7.5817 20 12Z"/>
</svg>
