<svg xmlns="http://www.w3.org/2000/svg" viewBox="0 0 45 51"><path d="M15.918 30.58q1.41 0 2.556-.68a5.25 5.25 0 0 0 1.843-1.843 4.9 4.9 0 0 0 .697-2.557q0-1.41-.697-2.557a5.25 5.25 0 0 0-1.843-1.842q-1.146-.681-2.556-.681-1.412 0-2.574.68a5.1 5.1 0 0 0-1.826 1.843q-.68 1.146-.68 2.557 0 1.395.68 2.557a5.1 5.1 0 0 0 1.826 1.842q1.163.681 2.574.681m13.165 0q1.394 0 2.556-.68a5.1 5.1 0 0 0 1.843-1.843q.68-1.162.68-2.557 0-1.41-.68-2.557a5.1 5.1 0 0 0-1.843-1.842 4.97 4.97 0 0 0-2.556-.681q-1.412 0-2.574.68a5.25 5.25 0 0 0-1.843 1.843q-.68 1.146-.68 2.557 0 1.395.68 2.557a5.25 5.25 0 0 0 1.843 1.842q1.163.681 2.573.681m-9.214-11.223a.9.9 0 0 0 .614.233.93.93 0 0 0 .63-.233l1.362-1.394 1.378 1.394a.98.98 0 0 0 .614.25.9.9 0 0 0 .631-.25.862.862 0 0 0 0-1.245l-1.378-1.378 1.378-1.361a.9.9 0 0 0 .266-.63.84.84 0 0 0-.266-.615.84.84 0 0 0-.614-.266.9.9 0 0 0-.631.266l-1.378 1.395-1.361-1.395a.9.9 0 0 0-.631-.266.84.84 0 0 0-.614.266.9.9 0 0 0-.25.63.87.87 0 0 0 .25.615l1.378 1.361-1.378 1.378a.83.83 0 0 0-.25.615.93.93 0 0 0 .25.63m0 17.499a.862.862 0 0 0 1.245 0l1.361-1.379 1.378 1.379a.861.861 0 0 0 1.245 0 .79.79 0 0 0 .25-.615.93.93 0 0 0-.25-.63l-1.378-1.362 1.378-1.378a.82.82 0 0 0 .25-.598.86.86 0 0 0-.25-.647.83.83 0 0 0-.63-.232.9.9 0 0 0-.615.232l-1.378 1.394-1.361-1.394a.93.93 0 0 0-.631-.232.8.8 0 0 0-.614.232.92.92 0 0 0-.266.647q.017.35.266.598l1.378 1.378-1.378 1.361a1 1 0 0 0-.266.631q0 .349.266.614m2.623 5.793q-3.553 0-6.658-1.344a17.2 17.2 0 0 1-5.461-3.686 17.5 17.5 0 0 1-3.703-5.462Q5.342 29.053 5.342 25.5t1.328-6.657a17.2 17.2 0 0 1 3.703-5.462 17.2 17.2 0 0 1 5.462-3.686q3.104-1.344 6.657-1.344t6.657 1.344a17.2 17.2 0 0 1 5.478 3.686 17 17 0 0 1 3.686 5.462q1.344 3.104 1.345 6.657t-1.345 6.657a17.24 17.24 0 0 1-9.164 9.148q-3.105 1.344-6.657 1.344"/></svg>