<svg xmlns="http://www.w3.org/2000/svg" viewBox="0 0 45 50"><path d="M16.536 23.684q1.053 0 1.925-.51a3.84 3.84 0 0 0 1.382-1.367q.51-.872.51-1.925t-.51-1.91a3.8 3.8 0 0 0-1.382-1.382 3.65 3.65 0 0 0-1.925-.526q-1.053 0-1.924.526-.855.51-1.382 1.383-.51.855-.51 1.909 0 1.053.51 1.925.525.856 1.382 1.366.871.51 1.924.51m11.895 0q1.053 0 1.908-.51a3.84 3.84 0 0 0 1.382-1.367 3.66 3.66 0 0 0 .527-1.925 3.57 3.57 0 0 0-.527-1.91 3.8 3.8 0 0 0-1.382-1.382 3.57 3.57 0 0 0-1.908-.526q-1.053 0-1.925.526-.855.51-1.382 1.383-.51.855-.51 1.909 0 1.053.51 1.925.527.856 1.382 1.366.872.51 1.925.51m-5.956 13.461q1.07 0 1.925-.51a4 4 0 0 0 1.382-1.382q.526-.873.526-1.926t-.526-1.909a3.8 3.8 0 0 0-1.382-1.382 3.6 3.6 0 0 0-1.925-.527q-1.053 0-1.925.527-.855.51-1.381 1.382-.51.855-.51 1.91 0 1.052.51 1.925.526.855 1.381 1.382.873.51 1.925.51m-8.423-5.299q1.136 0 1.925-.806.806-.823.806-1.942 0-1.135-.806-1.942a2.6 2.6 0 0 0-1.925-.806q-1.135 0-1.941.806a2.68 2.68 0 0 0-.79 1.942q0 1.119.79 1.942a2.65 2.65 0 0 0 1.941.806m16.863 0q1.135 0 1.941-.806.806-.823.806-1.942 0-1.135-.806-1.942a2.65 2.65 0 0 0-1.941-.806q-1.136 0-1.941.806a2.68 2.68 0 0 0-.79 1.942q0 1.119.79 1.942a2.65 2.65 0 0 0 1.94.806M22.492 42q-3.52 0-6.597-1.333a17.1 17.1 0 0 1-5.413-3.653 17.3 17.3 0 0 1-3.668-5.415Q5.498 28.522 5.498 25t1.316-6.6a17.1 17.1 0 0 1 3.668-5.413 17.1 17.1 0 0 1 5.413-3.654Q18.97 8 22.492 8q3.52 0 6.597 1.333a17 17 0 0 1 5.429 3.653 16.8 16.8 0 0 1 3.652 5.415q1.332 3.077 1.332 6.599t-1.332 6.6a17.09 17.09 0 0 1-9.081 9.067Q26.012 42 22.492 42"/></svg>