<svg xmlns="http://www.w3.org/2000/svg" viewBox="0 0 45 51"><path fill-rule="evenodd" d="M31.593 9.625c6.159 0 10.007 6.667 6.928 12l-9.093 15.75c-3.079 5.333-10.777 5.333-13.856 0l-9.093-15.75c-3.08-5.333.77-12 6.928-12zM22.5 30.375a3.5 3.5 0 1 0 0 7 3.5 3.5 0 0 0 0-7m-6-5a2.5 2.5 0 1 0 0 5 2.5 2.5 0 0 0 0-5m12 0a2.5 2.5 0 1 0 0 5 2.5 2.5 0 0 0 0-5m-7-2a1.5 1.5 0 1 0 0 3h2a1.5 1.5 0 0 0 0-3zm-7-10a4.5 4.5 0 1 0 0 9 4.5 4.5 0 0 0 0-9m16 0a4.5 4.5 0 1 0 0 9 4.5 4.5 0 0 0 0-9" clip-rule="evenodd"/></svg>