<svg xmlns="http://www.w3.org/2000/svg" width="45" height="51" viewBox="0 0 45 51"><path d="M22.5 43.305q-3.387 0-6.425-.996a20.4 20.4 0 0 1-5.561-2.806 19.7 19.7 0 0 1-4.367-4.25 19.9 19.9 0 0 1-2.838-5.378 18.8 18.8 0 0 1-.997-6.11q0-2.822.748-5.395a19.8 19.8 0 0 1 2.108-4.782q1.362-2.207 3.104-3.851 1.129-1.063 2.408-1.544 1.278-.498 2.955-.498h17.73q1.677 0 2.955.498 1.278.48 2.407 1.544a18.1 18.1 0 0 1 3.105 3.851 19.3 19.3 0 0 1 2.092 4.782q.764 2.573.764 5.395 0 3.188-1.013 6.11a19.3 19.3 0 0 1-2.84 5.378 19.3 19.3 0 0 1-4.349 4.25 20 20 0 0 1-5.561 2.806q-3.038.996-6.425.996m-5.28-24.221q1.262 0 2.159-.914.896-.912.896-2.174 0-1.261-.896-2.159-.897-.912-2.158-.913-1.278 0-2.192.913a2.94 2.94 0 0 0-.896 2.159q0 1.261.896 2.174.914.914 2.192.913m10.576 0q1.261 0 2.158-.914.913-.912.913-2.174 0-1.261-.913-2.159-.897-.912-2.158-.913-1.279 0-2.191.913a2.94 2.94 0 0 0-.897 2.159q0 1.261.897 2.174.913.914 2.19.913m-15.888 8.881q1.179 0 2.142-.564a4.34 4.34 0 0 0 1.527-1.544q.58-.963.581-2.125 0-1.179-.58-2.142a4.2 4.2 0 0 0-1.528-1.527 4.07 4.07 0 0 0-2.142-.581q-1.162 0-2.125.581A4.34 4.34 0 0 0 8.24 21.59a4.16 4.16 0 0 0-.564 2.142q0 1.162.564 2.125A4.5 4.5 0 0 0 9.783 27.4q.963.564 2.125.564m10.592 0q1.179 0 2.142-.564a4.34 4.34 0 0 0 1.527-1.544q.564-.963.564-2.125 0-1.179-.564-2.142a4.2 4.2 0 0 0-1.527-1.527 4.07 4.07 0 0 0-2.142-.581q-1.162 0-2.125.581a4.34 4.34 0 0 0-1.544 1.527 4.07 4.07 0 0 0-.581 2.142q0 1.162.581 2.125a4.5 4.5 0 0 0 1.544 1.544q.963.564 2.125.564m10.592 0q1.18 0 2.141-.564a4.34 4.34 0 0 0 1.528-1.544q.564-.963.564-2.125 0-1.179-.564-2.142a4.2 4.2 0 0 0-1.528-1.527 4.07 4.07 0 0 0-2.141-.581q-1.179 0-2.142.581a4.34 4.34 0 0 0-1.544 1.527 4.16 4.16 0 0 0-.564 2.142q0 1.162.564 2.125A4.5 4.5 0 0 0 30.95 27.4a4.16 4.16 0 0 0 2.142.564M17.22 36.947q1.162 0 2.125-.565a4.2 4.2 0 0 0 1.527-1.527 4.07 4.07 0 0 0 .581-2.142q0-1.178-.581-2.141a4.2 4.2 0 0 0-1.527-1.528 4.04 4.04 0 0 0-2.125-.58q-1.179 0-2.158.58a4.2 4.2 0 0 0-1.528 1.528 4.16 4.16 0 0 0-.564 2.141q0 1.179.564 2.142a4.2 4.2 0 0 0 1.527 1.527 4.25 4.25 0 0 0 2.159.565m10.575 0q1.162 0 2.125-.565a4.156 4.156 0 0 0 2.108-3.669 4.16 4.16 0 0 0-2.108-3.669 4.04 4.04 0 0 0-2.125-.58q-1.179 0-2.142.58a4.34 4.34 0 0 0-1.544 1.528 4.16 4.16 0 0 0-.564 2.141q0 1.179.564 2.142a4.34 4.34 0 0 0 1.544 1.527 4.16 4.16 0 0 0 2.142.565"/></svg>