<svg xmlns="http://www.w3.org/2000/svg" width="45" height="51" viewBox="0 0 45 51"><path d="M11.428 23.296q-1.66 0-3.027-.807a6.15 6.15 0 0 1-2.155-2.155 5.8 5.8 0 0 1-.806-3.01q0-1.662.806-3.011a6.1 6.1 0 0 1 2.155-2.171q1.366-.823 3.027-.823 1.646 0 2.994.822a6.06 6.06 0 0 1 2.172 2.172q.806 1.35.806 3.01 0 1.645-.806 3.011a6.1 6.1 0 0 1-2.172 2.155q-1.348.806-2.994.806m0-2.567q1.415 0 2.402-1.003 1.005-1.004 1.004-2.402 0-1.431-1.004-2.419a3.24 3.24 0 0 0-2.402-1.003q-1.43 0-2.435 1.003-.987.987-.987 2.419 0 1.398.987 2.401 1.005 1.005 2.435 1.004m0-1.859q-.657 0-1.118-.46a1.51 1.51 0 0 1-.445-1.086q0-.66.445-1.103.46-.46 1.118-.46.625 0 1.086.46.46.444.46 1.103 0 .624-.46 1.085t-1.086.461m22.144 4.426q-1.645 0-3.01-.807a6.15 6.15 0 0 1-2.156-2.155 5.8 5.8 0 0 1-.806-3.01q0-1.662.806-3.011a6.1 6.1 0 0 1 2.155-2.171 5.7 5.7 0 0 1 3.01-.823q1.663 0 3.012.822a6.06 6.06 0 0 1 2.171 2.172q.806 1.35.806 3.01 0 1.645-.806 3.011a6.1 6.1 0 0 1-2.171 2.155q-1.35.806-3.011.806m0-2.567q1.431 0 2.418-1.003 1.004-1.004 1.004-2.402 0-1.431-1.004-2.419-.987-1.003-2.418-1.003-1.415 0-2.419 1.003-.987.987-.987 2.419 0 1.398.988 2.401a3.3 3.3 0 0 0 2.418 1.004m0-1.859q-.642 0-1.102-.46a1.51 1.51 0 0 1-.445-1.086q0-.66.445-1.103.46-.46 1.102-.46t1.102.46q.46.444.46 1.103 0 .624-.46 1.085t-1.102.461M22.5 27.59q-4.673 0-8.768 1.677-4.08 1.679-7.173 4.64a17.5 17.5 0 0 1-2.172-4.673q-.773-2.565-.773-5.494 0-2.78.543-4.92a7.14 7.14 0 0 0 1.349 3.077 7.6 7.6 0 0 0 2.566 2.139q1.53.79 3.356.79 1.547 0 2.912-.576a7.5 7.5 0 0 0 2.386-1.629 7.5 7.5 0 0 0 1.612-2.386q.592-1.365.592-2.911 0-1.745-.724-3.225a7.4 7.4 0 0 0-1.974-2.55 7.3 7.3 0 0 0-2.83-1.48q1.86-.461 4.113-.675A53 53 0 0 1 22.5 9.18q2.715 0 4.968.214 2.271.214 4.113.675a7.3 7.3 0 0 0-2.83 1.48 7.6 7.6 0 0 0-1.974 2.55q-.707 1.48-.707 3.225 0 1.546.576 2.911.576 1.35 1.612 2.386a7.8 7.8 0 0 0 2.386 1.629 7.5 7.5 0 0 0 2.928.576q1.826 0 3.356-.79a7.6 7.6 0 0 0 2.566-2.139 7 7 0 0 0 1.333-3.076q.56 2.138.56 4.919 0 2.928-.774 5.494a17.2 17.2 0 0 1-2.188 4.673q-3.076-2.961-7.173-4.64-4.095-1.677-8.752-1.678m0 14.23q-4.722 0-8.571-1.744-3.85-1.728-6.367-4.804a21.2 21.2 0 0 1 6.712-4.442q3.801-1.58 8.226-1.58t8.193 1.58a20.9 20.9 0 0 1 6.729 4.459q-2.534 3.06-6.384 4.787-3.832 1.744-8.538 1.744m-7.255-5.314q.609 0 1.02-.411.428-.428.428-1.02 0-.609-.428-1.02a1.36 1.36 0 0 0-1.02-.428q-.592 0-1.02.428a1.36 1.36 0 0 0-.428 1.02q0 .591.428 1.02.428.41 1.02.41m7.255 1.036q1.02.001 1.744-.724.724-.74.724-1.743 0-1.02-.724-1.744a2.35 2.35 0 0 0-1.744-.74q-1.02 0-1.76.74a2.38 2.38 0 0 0-.724 1.744q0 1.003.724 1.743.74.724 1.76.724m7.255-1.036q.593 0 1.004-.411.427-.428.427-1.02 0-.609-.427-1.02a1.34 1.34 0 0 0-1.004-.428q-.609 0-1.036.428a1.39 1.39 0 0 0-.412 1.02q0 .591.412 1.02.427.41 1.036.41"/></svg>