<svg xmlns="http://www.w3.org/2000/svg" width="45" height="51" viewBox="0 0 45 51"><path d="M22.537 29.22q-2.857 0-5.38-1.094a14.7 14.7 0 0 1-4.454-3.025 14.2 14.2 0 0 1-3.006-4.434q-1.094-2.524-1.094-5.381t1.076-5.363a14.4 14.4 0 0 1 3.006-4.453 14.3 14.3 0 0 1 4.453-3.024A13.3 13.3 0 0 1 22.5 1.35q2.857 0 5.362 1.095a14.3 14.3 0 0 1 4.453 3.024 14.3 14.3 0 0 1 3.025 4.453q1.113 2.505 1.113 5.363 0 2.857-1.095 5.38a14 14 0 0 1-3.024 4.435 14.8 14.8 0 0 1-4.435 3.024q-2.505 1.095-5.362 1.095m-4.824-14.88q1.299 0 2.208-.928.927-.928.928-2.227 0-1.317-.928-2.226a2.98 2.98 0 0 0-2.208-.928q-1.317 0-2.245.928-.91.909-.91 2.226 0 1.299.91 2.227a3.06 3.06 0 0 0 2.245.927m9.593 0q1.317 0 2.226-.928.928-.928.928-2.227 0-1.317-.928-2.226-.909-.928-2.226-.928-1.299 0-2.227.928-.927.909-.928 2.226 0 1.299.928 2.227t2.227.927m-11.337 6.27q.927 0 1.577-.649.65-.648.65-1.577 0-.909-.65-1.558a2.15 2.15 0 0 0-1.577-.65q-.928 0-1.577.65-.631.65-.631 1.558 0 .929.63 1.577.651.65 1.578.65m13.062 0q.928 0 1.559-.649.65-.648.65-1.577 0-.909-.65-1.558-.63-.65-1.559-.65-.91 0-1.577.65-.65.65-.65 1.558 0 .929.65 1.577.668.65 1.577.65M22.5 25.102q1.317 0 2.227-.91a3.06 3.06 0 0 0 .927-2.244q0-1.299-.927-2.227-.91-.927-2.227-.927-1.299 0-2.227.927a3.07 3.07 0 0 0-.909 2.227q0 1.317.91 2.245.927.91 2.226.91M16.061 49.65a9.6 9.6 0 0 1-3.803-.76 9.4 9.4 0 0 1-3.08-2.079 9.6 9.6 0 0 1-2.06-3.08q-.723-1.763-.723-3.785t.723-3.785a9.55 9.55 0 0 1 2.06-3.08 9.4 9.4 0 0 1 3.08-2.078 9.8 9.8 0 0 1 3.803-.743H28.92q2.059 0 3.804.742a9.4 9.4 0 0 1 3.08 2.079 9.2 9.2 0 0 1 2.06 3.08 9.7 9.7 0 0 1 .742 3.785q0 2.022-.743 3.785a9.2 9.2 0 0 1-2.06 3.08 9.4 9.4 0 0 1-3.08 2.078q-1.743.76-3.803.76zm-.26-4.657q1.393 0 2.543-.687a5.1 5.1 0 0 0 1.837-1.818 4.87 4.87 0 0 0 .686-2.542q0-1.41-.686-2.542a5.1 5.1 0 0 0-1.837-1.819 4.87 4.87 0 0 0-2.542-.686q-1.392 0-2.542.686a5.1 5.1 0 0 0-1.837 1.819q-.668 1.131-.668 2.542 0 1.392.668 2.542a5.1 5.1 0 0 0 1.837 1.818 4.87 4.87 0 0 0 2.542.687m13.397 0q1.41 0 2.542-.687a5.1 5.1 0 0 0 1.837-1.818 4.87 4.87 0 0 0 .687-2.542q0-1.41-.687-2.542a5.1 5.1 0 0 0-1.837-1.819q-1.131-.686-2.542-.686-1.392 0-2.56.686a5.1 5.1 0 0 0-1.837 1.819q-.668 1.131-.668 2.542 0 1.392.668 2.542a5.1 5.1 0 0 0 1.837 1.818q1.168.687 2.56.687"/></svg>