<svg xmlns="http://www.w3.org/2000/svg" viewBox="0 0 45 51"><path d="M22.519 28.014q-3.044 0-5.66-1.095a14.9 14.9 0 0 1-4.601-3.043 14.5 14.5 0 0 1-3.08-4.471 13.3 13.3 0 0 1-1.114-5.4q0-2.987 1.188-5.603 1.187-2.636 3.099-4.416 1.558-1.503 3.915-1.503h12.468q2.356 0 3.934 1.503 1.892 1.781 3.08 4.416 1.206 2.616 1.206 5.603 0 2.858-1.113 5.4a14.5 14.5 0 0 1-3.08 4.471 14.6 14.6 0 0 1-4.602 3.043q-2.616 1.095-5.64 1.095m-3.656-17.33q.91 0 1.559-.63.668-.651.668-1.596 0-.91-.668-1.56a2.13 2.13 0 0 0-1.559-.648q-.91 0-1.577.649-.65.649-.65 1.559 0 .945.65 1.595.668.63 1.577.631m7.292 0q.928 0 1.559-.63a2.17 2.17 0 0 0 .65-1.596q0-.91-.65-1.56-.63-.648-1.559-.648-.927 0-1.577.649t-.65 1.559q0 .945.65 1.595.65.63 1.577.631m-10.984 6.457q1.317 0 2.227-.928a3.06 3.06 0 0 0 .927-2.245q0-1.299-.927-2.208-.91-.928-2.227-.928-1.318 0-2.245.928a3 3 0 0 0-.91 2.208q0 1.318.91 2.245a3.06 3.06 0 0 0 2.245.928m7.348 0q1.297 0 2.208-.928a3.06 3.06 0 0 0 .927-2.245q0-1.299-.927-2.208a2.98 2.98 0 0 0-2.208-.928q-1.318 0-2.246.928a2.98 2.98 0 0 0-.927 2.208q0 1.318.927 2.245a3.06 3.06 0 0 0 2.246.928m7.31 0q1.317 0 2.227-.928a3.06 3.06 0 0 0 .927-2.245q0-1.299-.927-2.208-.91-.928-2.227-.928-1.299 0-2.227.928a3 3 0 0 0-.909 2.208q0 1.318.91 2.245.927.928 2.226.928m-11.003 6.457q1.317 0 2.227-.909.909-.928.909-2.245 0-1.299-.91-2.208-.908-.928-2.226-.928-1.317 0-2.245.928a3 3 0 0 0-.91 2.208q0 1.318.91 2.245.928.91 2.245.91m7.366 0q1.299 0 2.227-.909a3.06 3.06 0 0 0 .928-2.245q0-1.299-.928-2.208a3.04 3.04 0 0 0-2.227-.928q-1.317 0-2.245.928a3 3 0 0 0-.909 2.208q0 1.318.91 2.245.927.91 2.244.91m-10.13 24.92a9.6 9.6 0 0 1-3.804-.762 9.4 9.4 0 0 1-3.08-2.078 9.55 9.55 0 0 1-2.06-3.08q-.723-1.763-.723-3.785t.723-3.785a9.6 9.6 0 0 1 2.06-3.08 9.4 9.4 0 0 1 3.08-2.078 9.8 9.8 0 0 1 3.803-.743H28.92q2.059 0 3.804.743a9.4 9.4 0 0 1 3.08 2.078 9.2 9.2 0 0 1 2.06 3.08 9.7 9.7 0 0 1 .742 3.785q0 2.022-.743 3.785a9.2 9.2 0 0 1-2.06 3.08 9.4 9.4 0 0 1-3.08 2.078q-1.743.762-3.803.761zm-.26-4.658q1.392 0 2.542-.687a5.1 5.1 0 0 0 1.837-1.818 4.87 4.87 0 0 0 .686-2.542q0-1.41-.686-2.542a5.1 5.1 0 0 0-1.837-1.818 4.87 4.87 0 0 0-2.542-.687q-1.392 0-2.542.687a5.1 5.1 0 0 0-1.837 1.818q-.668 1.132-.668 2.542 0 1.392.668 2.542a5.1 5.1 0 0 0 1.837 1.818 4.87 4.87 0 0 0 2.542.687m13.396 0q1.41 0 2.542-.687a5.1 5.1 0 0 0 1.837-1.818 4.87 4.87 0 0 0 .687-2.542q0-1.41-.687-2.542a5.1 5.1 0 0 0-1.837-1.818q-1.131-.687-2.542-.687-1.392 0-2.56.687A5.1 5.1 0 0 0 24.8 36.27q-.668 1.132-.668 2.542 0 1.392.668 2.542a5.1 5.1 0 0 0 1.837 1.818q1.168.687 2.56.687"/></svg>