<svg xmlns="http://www.w3.org/2000/svg" viewBox="0 0 45 51"><path d="M22.5 43.457q-3.126 0-5.955-.955a18.9 18.9 0 0 1-5.199-2.698 19.3 19.3 0 0 1-4.096-4.08 19.2 19.2 0 0 1-2.682-5.198q-.954-2.83-.954-5.972 0-3.488 1.168-6.58a19 19 0 0 1 3.24-5.578Q10.098 9.93 12.778 8.4a6.2 6.2 0 0 1 3.159-.856h13.128q1.695 0 3.175.856 2.682 1.53 4.738 3.997a19 19 0 0 1 3.241 5.578q1.168 3.092 1.168 6.58 0 3.142-.954 5.972a18.771 18.771 0 0 1-6.778 9.279 18.9 18.9 0 0 1-5.199 2.698 18.5 18.5 0 0 1-5.955.954m-5.593-25.73q.97 0 1.645-.675.674-.674.674-1.628a2.22 2.22 0 0 0-.674-1.63q-.675-.69-1.645-.69-.939 0-1.613.69a2.22 2.22 0 0 0-.674 1.63q0 .953.674 1.628a2.2 2.2 0 0 0 1.613.675m5.593 0q.955 0 1.629-.675.674-.674.674-1.628a2.22 2.22 0 0 0-.674-1.63q-.675-.69-1.629-.69t-1.629.69q-.657.675-.658 1.63 0 .953.658 1.628.675.675 1.629.675m5.593 0a2.2 2.2 0 0 0 1.613-.675q.69-.674.69-1.628 0-.955-.69-1.63-.674-.69-1.613-.69-.954 0-1.645.69a2.22 2.22 0 0 0-.674 1.63q0 .953.674 1.628.692.675 1.645.675M22.5 23.27q.955 0 1.629-.675a2.2 2.2 0 0 0 .674-1.612q0-.97-.674-1.645a2.22 2.22 0 0 0-1.629-.675 2.22 2.22 0 0 0-1.629.675q-.657.675-.658 1.645 0 .938.658 1.612.675.675 1.629.675m-8.44 6.317q1.399 0 2.534-.674a5.2 5.2 0 0 0 1.826-1.827q.675-1.15.675-2.55 0-1.38-.675-2.517a5 5 0 0 0-1.826-1.826q-1.135-.69-2.534-.69-1.38 0-2.533.69a5.16 5.16 0 0 0-1.843 1.826 4.84 4.84 0 0 0-.674 2.518q0 1.398.674 2.55a5.34 5.34 0 0 0 1.843 1.826q1.152.675 2.534.674m16.88 0q1.38 0 2.533-.674a5.34 5.34 0 0 0 1.843-1.827q.69-1.15.69-2.55 0-1.38-.69-2.517a5.16 5.16 0 0 0-1.843-1.826 4.83 4.83 0 0 0-2.533-.69q-1.383 0-2.534.69a5 5 0 0 0-1.826 1.826 4.84 4.84 0 0 0-.674 2.518q0 1.398.674 2.55a5.2 5.2 0 0 0 1.826 1.826q1.151.675 2.534.674M15.41 35.79q.838 0 1.447-.608.625-.625.625-1.498 0-.855-.625-1.48-.609-.625-1.447-.625-.872 0-1.498.625-.608.625-.608 1.48 0 .872.608 1.498a2.07 2.07 0 0 0 1.497.608m7.09 1.432q.97 0 1.76-.477a3.8 3.8 0 0 0 1.284-1.284q.477-.806.477-1.776 0-.955-.477-1.76a3.6 3.6 0 0 0-1.284-1.284 3.34 3.34 0 0 0-1.76-.477q-.971 0-1.777.477a3.64 3.64 0 0 0-1.267 1.283 3.4 3.4 0 0 0-.477 1.76q0 .972.477 1.777.477.79 1.267 1.284.807.477 1.777.477m7.107-1.432q.856 0 1.48-.608.626-.625.626-1.498 0-.855-.625-1.48a2.02 2.02 0 0 0-1.481-.625q-.856 0-1.48.625-.61.625-.61 1.48 0 .872.61 1.498.625.608 1.48.608"/></svg>