<svg viewBox="0 0 24 24" xmlns="http://www.w3.org/2000/svg">
<path fill-rule="evenodd" clip-rule="evenodd" d="M12 4C7.58172 4 4 7.58172 4 12C4 16.4183 7.58172 20 12 20C16.4183 20 20 16.4183 20 12C20 7.58172 16.4183 4 12 4ZM2 12C2 6.47715 6.47715 2 12 2C17.5228 2 22 6.47715 22 12C22 17.5228 17.5228 22 12 22C6.47715 22 2 17.5228 2 12ZM8.99997 7.58579L12 10.5857L15 7.58579L16.4142 9.00003L13.4142 11.9999L16.4142 14.9998L15 16.414L12 13.4141L8.99998 16.414L7.58579 14.9998L10.5858 11.9999L7.58579 9.00003L8.99997 7.58579Z"/>
</svg>
