<svg viewBox="0 0 57 57" xmlns="http://www.w3.org/2000/svg">
  <path d="M-2.47698e-06 28.3334C-3.84498e-06 12.6853 12.6853 2.17792e-05 28.3333 2.04112e-05L28.3333 5.66669C15.8149 5.66669 5.66666 15.8149 5.66666 28.3334C5.66667 40.8518 15.8149 51 28.3333 51L28.3333 56.6667C12.6853 56.6667 -1.10898e-06 43.9814 -2.47698e-06 28.3334Z" fill="url(#paint0_linear_8_122)"/>
  <path d="M56.6666 28.3333C56.6666 43.9814 43.9814 56.6667 28.3333 56.6667L28.3333 51C40.8518 51 50.9999 40.8518 50.9999 28.3333C50.9999 15.8149 40.8518 5.66669 28.3333 5.66669L28.3333 2.04112e-05C43.9814 1.90432e-05 56.6666 12.6853 56.6666 28.3333Z" fill="currentColor"/>
  <defs>
    <linearGradient id="paint0_linear_8_122" x1="56.6666" y1="53.8333" x2="56.6666" y2="2.83335" gradientUnits="userSpaceOnUse">
      <stop offset="0.4" stop-color="currentColor"/>
      <stop offset="1" stop-color="currentColor" stop-opacity="0.4"/>
    </linearGradient>
  </defs>
</svg>
