<svg width="68" height="68" viewBox="0 0 68 68" fill="none" xmlns="http://www.w3.org/2000/svg">
<path fill-rule="evenodd" clip-rule="evenodd" d="M34.0002 62.3333C49.6482 62.3333 62.3335 49.6481 62.3335 34C62.3335 18.3521 49.6482 5.66667 34.0002 5.66667C18.3522 5.66667 5.66683 18.3521 5.66683 34C5.66683 49.6481 18.3522 62.3333 34.0002 62.3333ZM56.6668 34C56.6668 46.5185 46.5186 56.6667 34.0002 56.6667C21.4816 56.6667 11.3335 46.5185 11.3335 34C11.3335 21.4815 21.4816 11.3333 34.0002 11.3333C46.5186 11.3333 56.6668 21.4815 56.6668 34Z" fill="white"/>
<path d="M5.6665 34C5.6665 18.3519 18.3518 5.66667 33.9998 5.66667V11.3333C21.4814 11.3333 11.3332 21.4815 11.3332 34C11.3332 46.5185 21.4814 56.6667 33.9998 56.6667L33.9998 62.3333C18.3518 62.3333 5.6665 49.6481 5.6665 34Z" fill="url(#paint0_linear_3075_5661)"/>
<defs>
<linearGradient id="paint0_linear_3075_5661" x1="33.9998" y1="8.5" x2="33.9998" y2="59.5" gradientUnits="userSpaceOnUse">
<stop stop-color="#757575"/>
<stop offset="1" stop-color="white" stop-opacity="0"/>
</linearGradient>
</defs>
</svg>
