<svg width="24" height="24" viewBox="0 0 24 24" fill="none" xmlns="http://www.w3.org/2000/svg">
<path d="M13.84 5C11.1219 5 8.75809 6.62888 7.65753 9H12V11H7.06908C7.02356 11.3264 7 11.6603 7 12C7 12.3397 7.02356 12.6736 7.06908 13H12V15H7.65753C8.75809 17.3711 11.1219 19 13.84 19C16.0114 19 17.9514 17.965 19.2087 16.3378L19.8201 15.5465L21.4027 16.7694L20.7913 17.5607C19.1773 19.6495 16.666 21 13.84 21C9.97886 21 6.71495 18.4873 5.50363 15H3V13H5.05408C5.01834 12.6715 5 12.3379 5 12C5 11.6621 5.01834 11.3285 5.05408 11H3V9H5.50363C6.71495 5.51269 9.97886 3 13.84 3C16.666 3 19.1773 4.35055 20.7913 6.43931L21.4027 7.23061L19.8201 8.45347L19.2087 7.66218C17.9514 6.03498 16.0114 5 13.84 5Z" fill="white"/>
</svg>
