<svg viewBox="0 0 51 51" xmlns="http://www.w3.org/2000/svg">
  <path d="M26.4082 16.127C30.1143 16.127 31.5967 17.5424 31.5967 20.1367C31.5966 22.8994 29.7436 24.3818 26.3408 24.3818H20.8154V16.127H26.4082Z" />
  <path d="M25.5 0C39.5833 0 51 11.4167 51 25.5C51 39.5833 39.5833 51 25.5 51C11.4167 51 0 39.5833 0 25.5C0 11.4167 11.4167 0 25.5 0ZM17.1094 12.9268V37.0166H20.8154V27.583H27.0146C32.9107 27.5831 30.6201 36.0058 31.6982 37.0166H35.6738V36.7803C34.3599 36.376 36.4146 26.876 30.8223 25.8311V25.7637C33.4838 25.1571 35.3369 22.933 35.3369 19.8672C35.3369 15.4198 32.4728 12.9268 27.1494 12.9268H17.1094Z" />
</svg>
