<svg viewBox="0 0 24 24" xmlns="http://www.w3.org/2000/svg">
<path fill-rule="evenodd" clip-rule="evenodd" d="M7.10832 1.47656L11.3205 7.0928L9.16425 9.24905C9.65161 10.3912 10.4578 11.5424 11.4572 12.5418C12.4566 13.5412 13.6079 14.3475 14.75 14.8348L16.9063 12.6786L22.5225 16.8908L17.2911 22.1221L16.7254 21.9605C9.39319 19.8656 4.13351 14.6059 2.0386 7.27369L1.87695 6.70792L7.10832 1.47656ZM4.12956 7.28374C6.07741 13.4722 10.5269 17.9217 16.7153 19.8695L19.4777 17.1071L17.0939 15.3193L15.2702 17.1431L14.6839 16.9476C13.0066 16.3885 11.378 15.291 10.043 13.9561C8.70802 12.6211 7.61053 10.9924 7.05144 9.31519L6.856 8.72888L8.67974 6.90513L6.89193 4.52137L4.12956 7.28374Z"/>
</svg>
